# xmcd
#
# Track frame offsets: 
#        150
#        14763
#        29155
#        42606
#        56970
#        70142
#        83540
#        96150
#        110584
#        125157
#        137637
#        149189
#        162831
#        176264
#        189956
#        203523
#        215500
#        227921
#        240595
#        254220
#
# Disc length: 3580 seconds
#
# Revision: 0
# Processed by: cddbd v1.5.2PL0 Copyright (c) Steve Scherf et al.
# Submitted via: ExactAudioCopyFreeDBPlugin 1.0
#
DISCID=360dfa14
DTITLE=Various Artist - The Roots Of Led Zeppelin - When The Levee Br
DTITLE=eaks
DYEAR=2009
DGENRE=Blues
TTITLE0=Blind Willie Johnson - Jesus Make Up My Dying Bed
TTITLE1=Blind Willie Johnson - Nobody’s Fault But Mine
TTITLE2=Memphis Jug Band - Stealin’ Stealin’
TTITLE3=Memphis Minnie - When The Levee Breaks
TTITLE4=Robert Wilkins - That’s No Way To Get Along
TTITLE5=John Estes - The Girl I Love
TTITLE6=Big Bill Broonzy - I Can’t Be Satisfied
TTITLE7=Sleepy John Estes - Drop Down Mama
TTITLE8=Oscar Woods - Lone Wolf Blues
TTITLE9=Robert Johnson - Travelin’ Riverside Blues
TTITLE10=Sonny Boy Williamson - Got The Bottle Up And Gone
TTITLE11=Bukka White - Shake ‘Em On Down
TTITLE12=Sonny Boy Williamson - Sugar Mama Blues
TTITLE13=Robert Johnson - Sweet Home Chicago
TTITLE14=Sonny Boy Williamson - Good Morning Little School Girl
TTITLE15=Big Bill Broonzy - Trucking Little Woman
TTITLE16=Blind Boy Fuller - I Want Some Of Your Pie
TTITLE17=Bukka White - Fixin’ To Die
TTITLE18=Leadbelly - Gallis Pole
TTITLE19=St. Louis Jimmy - Goin’ Down Slow
EXTD=
EXTT0=
EXTT1=
EXTT2=
EXTT3=
EXTT4=
EXTT5=
EXTT6=
EXTT7=
EXTT8=
EXTT9=
EXTT10=
EXTT11=
EXTT12=
EXTT13=
EXTT14=
EXTT15=
EXTT16=
EXTT17=
EXTT18=
EXTT19=
PLAYORDER=
